<svg xmlns="http://www.w3.org/2000/svg" viewBox="0 0 2000 2000"><defs><style>.cls-1{fill:none;}.cls-2{fill:#fdd100;}.cls-3{fill:#2f318b;}.cls-4{fill:#fff;}</style></defs><g id="Layer_2" data-name="Layer 2"><g id="Layer_1-2" data-name="Layer 1"><rect class="cls-1" width="2000" height="2000"/><polygon class="cls-2" points="1060.49 184.78 1060.49 1815.22 1999.9 1815.22 1999.9 451.12 1060.49 184.78"/><polygon class="cls-3" points="1203.42 225.31 1999.9 451.12 1999.9 1815.22 1972.62 469.47 1203.42 225.31"/><polygon class="cls-4" points="1150.64 426.77 1150.64 267.83 1934.66 486.08 1934.66 616.55 1901.48 512.65 1176.96 323.23 1150.64 426.77"/><polygon class="cls-4" points="1150.64 729.14 1150.64 570.2 1934.66 748.8 1934.66 879.28 1901.48 777.05 1176.96 624.26 1150.64 729.14"/><polygon class="cls-4" points="1150.64 1031.5 1150.64 872.56 1934.66 1011.53 1934.66 1142 1901.48 1041.45 1176.96 925.29 1150.64 1031.5"/><polygon class="cls-4" points="1150.64 1333.87 1150.64 1174.93 1934.66 1274.26 1934.66 1404.73 1901.48 1305.86 1176.96 1226.33 1150.64 1333.87"/><polygon class="cls-4" points="1150.64 1636.23 1150.64 1477.29 1934.66 1536.98 1934.66 1667.45 1901.48 1570.26 1176.96 1527.36 1150.64 1636.23"/><polygon class="cls-4" points="1872.03 554.87 1872.03 585.71 1542.65 505.06 1542.65 469.47 1872.03 554.87"/><polygon class="cls-4" points="1872.03 612.99 1872.03 643.83 1543.81 572.67 1543.81 537.08 1872.03 612.99"/><polygon class="cls-4" points="1872.03 819.97 1872.03 850.81 1542.65 787.95 1542.65 752.36 1872.03 819.97"/><polygon class="cls-4" points="1872.03 878.09 1872.03 908.93 1543.81 855.49 1543.81 819.91 1872.03 878.09"/><polygon class="cls-4" points="1872.03 1085.07 1872.03 1115.91 1542.65 1070.84 1542.65 1035.25 1872.03 1085.07"/><polygon class="cls-4" points="1872.03 1143.19 1872.03 1174.03 1543.81 1138.32 1543.81 1102.74 1872.03 1143.19"/><polygon class="cls-4" points="1872.03 1350.17 1872.03 1381.01 1542.65 1353.73 1542.65 1318.14 1872.03 1350.17"/><polygon class="cls-4" points="1872.03 1408.29 1872.03 1439.13 1543.81 1421.15 1543.81 1385.56 1872.03 1408.29"/><polygon class="cls-4" points="1872.03 1615.27 1872.03 1646.11 1542.65 1636.62 1542.65 1601.03 1872.03 1615.27"/><polygon class="cls-4" points="1872.03 1673.38 1872.03 1704.22 1543.81 1703.97 1543.81 1668.39 1872.03 1673.38"/><path class="cls-4" d="M1303.73,442.67c0,11.5-6.56,20.83-14.66,20.83s-14.67-9.33-14.67-20.83,6.57-20.83,14.67-20.83S1303.73,431.17,1303.73,442.67Z"/><path class="cls-4" d="M1444.07,479.12c0,9.95-5.68,18-12.68,18s-12.68-8.06-12.68-18,5.68-18,12.68-18S1444.07,469.18,1444.07,479.12Z"/><path class="cls-4" d="M1234.56,730c.4,12.42-6.24,22.84-14.83,23.29s-15.89-9.27-16.29-21.69,6.25-22.84,14.84-23.29S1234.16,717.55,1234.56,730Z"/><path class="cls-4" d="M1445.5,771.13c.32,10.06-5,18.5-12,18.86s-12.86-7.5-13.18-17.56,5-18.5,12-18.85S1445.17,761.08,1445.5,771.13Z"/><path class="cls-4" d="M1306,1044.71c.75,11.76-5.13,22-13.12,22.79s-15.09-8-15.84-19.78,5.13-22,13.12-22.8S1305.27,1033,1306,1044.71Z"/><path class="cls-4" d="M1376.47,1053.92c.7,11-4.77,20.48-12.23,21.26s-14.06-7.49-14.76-18.45,4.78-20.48,12.23-21.25S1375.78,1043,1376.47,1053.92Z"/><path class="cls-4" d="M1236.56,1341c1.2,12.7-4.7,24.06-13.18,25.39s-16.33-7.88-17.53-20.57,4.7-24.06,13.18-25.39S1235.36,1328.33,1236.56,1341Z"/><path class="cls-4" d="M1307.16,1345.73c1.13,11.89-4.4,22.54-12.34,23.78s-15.3-7.38-16.42-19.27,4.4-22.53,12.35-23.77S1306,1333.85,1307.16,1345.73Z"/><path class="cls-4" d="M1237.57,1644.32c1.6,12.83-3.94,24.67-12.36,26.44s-16.56-7.19-18.16-20,3.94-24.66,12.36-26.43S1236,1631.5,1237.57,1644.32Z"/><path class="cls-4" d="M1449.81,1644.94c1.3,10.38-3.18,20-10,21.4s-13.4-5.82-14.69-16.21,3.18-20,10-21.4S1448.52,1634.55,1449.81,1644.94Z"/><polygon class="cls-3" points="1029.65 184.78 0.1 557.25 0.1 1815.22 80.76 604.69 1029.65 184.78"/><path class="cls-3" d="M1233.56,424.44c0,12.29-7,22.24-15.65,22.24s-15.66-9.95-15.66-22.24,7-22.24,15.66-22.24S1233.56,412.16,1233.56,424.44Z"/><ellipse class="cls-3" cx="1360.23" cy="460.9" rx="13.67" ry="19.42"/><path class="cls-3" d="M1304.87,743.69c.38,11.63-5.84,21.39-13.89,21.81s-14.87-8.68-15.25-20.31,5.85-21.39,13.89-21.81S1304.5,732.06,1304.87,743.69Z"/><path class="cls-3" d="M1375.18,757.41c.35,10.84-5.44,20-13,20.33s-13.86-8.09-14.21-18.93,5.45-19.95,13-20.33S1374.84,746.57,1375.18,757.41Z"/><path class="cls-3" d="M1235.56,1035.49c.8,12.56-5.47,23.46-14,24.34s-16.11-8.57-16.91-21.13,5.48-23.45,14-24.33S1234.76,1022.94,1235.56,1035.49Z"/><path class="cls-3" d="M1446.93,1063.14c.65,10.17-4.43,19-11.34,19.71s-13-6.94-13.69-17.11,4.43-19,11.35-19.71S1446.28,1053,1446.93,1063.14Z"/><path class="cls-3" d="M1377.77,1350.44c1,11.08-4.11,21-11.51,22.17s-14.26-6.88-15.31-18,4.11-21,11.51-22.17S1376.72,1339.36,1377.77,1350.44Z"/><path class="cls-3" d="M1448.37,1355.15c1,10.28-3.81,19.48-10.67,20.56s-13.22-6.38-14.2-16.66,3.81-19.48,10.68-20.55S1447.4,1344.88,1448.37,1355.15Z"/><path class="cls-3" d="M1308.31,1644.53c1.5,12-3.68,23.1-11.57,24.76s-15.5-6.74-17-18.75,3.68-23.1,11.57-24.76S1306.82,1632.51,1308.31,1644.53Z"/><path class="cls-3" d="M1379.06,1644.73c1.4,11.2-3.43,21.54-10.79,23.08s-14.45-6.27-15.85-17.47,3.44-21.54,10.79-23.09S1377.67,1633.53,1379.06,1644.73Z"/></g></g></svg>